Coordinates
version=1
nRows=19
nColumns=18
inDegrees=yes

Units are S.I. units (second, meters, Newtons, ...)
If the header above contains a line with 'inDegrees', this indicates whether rotational values are in degrees (yes) or radians (no).

endheader
time	TH_y	TH_x	TH_z	TH_x_trans	TH_y_trans	TH_z_trans	SC_y	SC_z	SC_x	AC_y	AC_z	AC_x	GH_y	GH_z	GH_yy	EL_x	PS_y
     22.17000000	   -149.71608503	     -2.34468900	     -0.03316015	      0.01061447	      1.48191979	      0.02385643	    -21.52042218	      4.24414972	     -3.56018012	     55.62082808	      0.81404357	     -9.17056705	     -4.35100227	      2.17847807	     -4.61194159	     28.27437332	     86.48271677
     22.18000000	   -149.65627475	     -2.49616813	     -0.09955475	      0.01077602	      1.48184680	      0.02429097	    -21.43346126	      4.25525404	     -3.66136825	     55.61456039	      0.78469763	     -9.33064334	     -4.32662795	      2.14805535	     -4.58222407	     28.02098724	     86.51083933
     22.19000000	   -149.73130746	     -2.45688494	     -0.03273938	      0.01068755	      1.48198735	      0.02445653	    -21.30973380	      4.25330794	     -3.76083910	     55.62994607	      0.69536255	     -9.37037284	     -4.26659331	      2.05030943	     -4.52046855	     27.33184136	     86.60608159
     22.20000000	   -149.80248272	     -2.55238842	     -0.04469903	      0.01067571	      1.48190021	      0.02491117	    -21.22185243	      4.31100903	     -3.81953080	     55.68979513	      0.64705132	     -9.38400765	     -4.16569901	      1.99555871	     -4.41967699	     26.80005706	     86.72917612
     22.21000000	   -149.74987996	     -2.67551777	     -0.11071075	      0.01080574	      1.48186275	      0.02534262	    -21.16384767	      4.32265719	     -3.91682415	     55.67930308	      0.61590595	     -9.53253643	     -4.15070362	      1.96394233	     -4.40014774	     26.57669790	     86.75473840
     22.22000000	   -149.78305531	     -2.62882478	     -0.04497259	      0.01077194	      1.48192938	      0.02552464	    -21.09360605	      4.34548698	     -4.01748492	     55.67950168	      0.51715850	     -9.54979641	     -4.11635783	      1.85947042	     -4.36449263	     25.97276357	     86.84246763
     22.23000000	   -149.81706545	     -2.67902897	     -0.05073413	      0.01076581	      1.48185941	      0.02590630	    -21.04052092	      4.39459806	     -4.08949562	     55.69659319	      0.45343688	     -9.56584299	     -4.07087486	      1.79164195	     -4.31824961	     25.49905059	     86.93587031
     22.24000000	   -149.77848724	     -2.77041155	     -0.10028970	      0.01087377	      1.48181459	      0.02631541	    -20.99799530	      4.40974438	     -4.18028938	     55.67895507	      0.41227044	     -9.67920649	     -4.06740334	      1.74931734	     -4.31140184	     25.26278576	     86.96188487
     22.25000000	   -149.82648488	     -2.73522069	     -0.03163297	      0.01084045	      1.48172614	      0.02656076	    -20.95998570	      4.47589996	     -4.26138915	     55.65505498	      0.30173028	     -9.61762893	     -4.06906945	      1.63163646	     -4.31307772	     24.69430131	     87.04797219
     22.26000000	   -149.81272929	     -2.78164253	     -0.08880407	      0.01089283	      1.48174457	      0.02693761	    -20.93578680	      4.48511252	     -4.34534309	     55.61982226	      0.26233685	     -9.72147951	     -4.08751018	      1.58954850	     -4.32857292	     24.42159754	     87.07272567
     22.27000000	   -149.81832402	     -2.71178191	     -0.04221498	      0.01087893	      1.48175602	      0.02712502	    -20.91983881	      4.52161472	     -4.44317604	     55.54768580	      0.15849067	     -9.71968941	     -4.14181317	      1.47676269	     -4.38134303	     23.95711001	     87.10789906
     22.28000000	   -149.85242939	     -2.78486229	     -0.03681498	      0.01099214	      1.48148243	      0.02760549	    -20.95120428	      4.55597482	     -4.52167846	     55.53844355	      0.11045877	     -9.78761230	     -4.14546094	      1.43436504	     -4.38320291	     23.90595140	     87.11109421
     22.29000000	   -150.00679954	     -2.75522156	     -0.06655877	      0.01068777	      1.48140531	      0.02785971	    -20.83529957	      4.72950561	     -4.53777222	     55.47273521	      0.00310402	     -9.55696092	     -4.19934501	      1.30839561	     -4.43872830	     23.09929767	     87.26462937
     22.30000000	   -149.99644719	     -2.72865250	     -0.07080692	      0.01073175	      1.48144599	      0.02814190	    -20.84548588	      4.73550087	     -4.62166864	     55.40234494	     -0.05966349	     -9.61555321	     -4.26086341	      1.24113789	     -4.49830266	     22.80653470	     87.28983861
     22.31000000	   -150.02797983	     -2.78938047	     -0.06279390	      0.01087993	      1.48120154	      0.02854151	    -20.87549933	      4.76708736	     -4.68952287	     55.39254155	     -0.09921660	     -9.67744341	     -4.26669833	      1.20657292	     -4.50277886	     22.76397646	     87.29174033
     22.32000000	   -150.06299886	     -2.69865358	     -0.07858040	      0.01082223	      1.48152063	      0.02871617	    -20.87618562	      4.74493832	     -4.74593462	     55.24713630	     -0.15403798	     -9.69941876	     -4.39905031	      1.12998779	     -4.63366893	     22.25776651	     87.30281522
     22.33000000	   -150.08900178	     -2.75576832	     -0.06815843	      0.01094212	      1.48129786	      0.02907218	    -20.89879168	      4.77607430	     -4.80692627	     55.23895692	     -0.19226952	     -9.74868691	     -4.40296808	      1.09596521	     -4.63654325	     22.21875258	     87.30511055
     22.34000000	   -150.12177565	     -2.70019064	     -0.04398621	      0.01084172	      1.48143428	      0.02911043	    -20.81362967	      4.80177296	     -4.84446205	     55.08376929	     -0.27589256	     -9.65685087	     -4.53124855	      0.97786253	     -4.76463358	     21.63358161	     87.32907419
     22.35000000	   -150.15013443	     -2.75079200	     -0.03760813	      0.01093743	      1.48126142	      0.02943291	    -20.83479652	      4.82975861	     -4.89706060	     55.07749040	     -0.30724259	     -9.70205474	     -4.53425976	      0.95050901	     -4.76684045	     21.60266666	     87.33125694
